<svg id="Capa_1" enable-background="new 0 0 512 512" height="512" viewBox="0 0 512 512" width="512" xmlns="http://www.w3.org/2000/svg"><g><g><path d="m370.408 504.659v-31.768c0-64.897-52.609-117.506-117.506-117.506-64.897 0-117.506 52.609-117.506 117.506v31.768z" fill="#fef2a8"/><path d="m301.652 460.785c-9.145-8.383-3.048-49.889-3.048-49.889-7.71-5.536-16.463-9.711-25.911-12.167v40.193c-12.424 9.728-24.407 10.594-35.818 0v-41.062c-10.278 2.137-19.822 6.275-28.197 12.004 0 0 4.573 41.014-2.286 50.159s-31.167 3.81-31.167 3.81c-.488 3.536-.76 7.14-.76 10.81v30.016h156.875v-30.016c0-3.933-.306-7.794-.865-11.572-.001.001-19.678 6.097-28.823-2.286z" fill="#8bb6ef"/><path d="m281.068 406.82c16.711 7.516 12.275 13.485 15.557 31.493 2.046 6.702 3.154 13.866 3.154 21.311l15.19 14.998 15.478-11.546c-3.247-21.388-15.132-39.938-31.985-51.982.001-.001-3.565-2.832-17.394-4.274z" fill="#eeb6a8"/><g fill="#8388ef"><path d="m272.693 403.775c11.102 8.307 19.602 20.391 23.923 34.541-.066-12.274 1.659-25.079 1.947-27.133-7.7-5.523-16.438-9.686-25.87-12.138z"/><path d="m301.652 460.785c-.725-.665-1.354-1.539-1.898-2.583.009.474.025.945.025 1.421v6.8c0 10.585-8.581 19.166-19.166 19.166h-106.148v19.068h156.875v-29.713c0-4.034-.317-7.992-.904-11.862-.814.248-19.835 5.906-28.784-2.297z"/></g><g><path d="m174.465 480.297c-3.314 0-6-2.687-6-6 0-46.559 37.878-84.438 84.438-84.438 3.314 0 6 2.687 6 6s-2.686 6-6 6c-39.942 0-72.438 32.495-72.438 72.438 0 3.313-2.687 6-6 6z" fill="#d08372"/></g><g fill="#ffc7b6"><circle cx="423.621" cy="308.629" r="38.914"/><circle cx="82.184" cy="308.629" r="38.914"/><path d="m286.062 404.797h-66.32c-82.411 0-149.219-66.807-149.219-149.219 0-82.411 66.808-149.219 149.219-149.219h66.32c82.411 0 149.219 66.808 149.219 149.219 0 82.411-66.807 149.219-149.219 149.219z"/></g><path d="m286.062 106.359h-19.135c66.812 0 120.973 54.161 120.973 120.973v10.273c0 66.812-54.161 120.974-120.973 120.974h-75.43c-63.937 0-116.282-49.603-120.669-112.424-.194 3.117-.305 6.257-.305 9.423v.001c0 82.411 66.808 149.219 149.219 149.219h66.32c82.411 0 149.219-66.807 149.219-149.219v-.001c0-82.411-66.807-149.219-149.219-149.219z" fill="#ef95b6"/><ellipse cx="163.878" cy="317.19" fill="#d07297" rx="16.658" ry="16.658" transform="matrix(.438 -.899 .899 .438 -193.045 325.664)"/><ellipse cx="341.927" cy="317.19" fill="#d07297" rx="16.658" ry="16.658" transform="matrix(.23 -.973 .973 .23 -45.337 577.096)"/><g><path d="m177.368 273.886c-.918 0-1.849-.211-2.723-.657-.023-.011-4.945-2.428-10.768-2.428s-10.744 2.417-10.794 2.441c-2.956 1.47-6.559.284-8.045-2.663-1.487-2.948-.325-6.537 2.616-8.038.75-.383 7.577-3.74 16.223-3.74s15.473 3.357 16.223 3.74c2.952 1.506 4.123 5.12 2.617 8.071-1.06 2.079-3.166 3.274-5.349 3.274z" fill="#440a29"/></g><g><path d="m355.418 273.886c-.918 0-1.849-.211-2.723-.657-.023-.011-4.944-2.428-10.768-2.428-5.823 0-10.744 2.417-10.793 2.441-2.956 1.47-6.559.284-8.046-2.663-1.487-2.948-.325-6.537 2.616-8.038.75-.383 7.577-3.74 16.223-3.74 8.647 0 15.474 3.357 16.223 3.74 2.952 1.506 4.123 5.12 2.617 8.071-1.061 2.079-3.166 3.274-5.349 3.274z" fill="#440a29"/></g><g><path d="m252.902 339.848c-12.494 0-22.658-10.164-22.658-22.658 0-3.314 2.687-6 6-6 3.314 0 6 2.686 6 6 0 5.877 4.781 10.658 10.658 10.658 5.876 0 10.658-4.781 10.658-10.658 0-3.314 2.687-6 6-6 3.314 0 6 2.686 6 6 0 12.494-10.164 22.658-22.658 22.658z" fill="#d07297"/></g><path d="m422.253 315.233c17.819-11.031 33.092-28.001 35.036-57.045v-17.508c0-96.961-78.602-175.564-175.563-175.564h-57.646c-96.961 0-175.563 78.602-175.563 175.564v17.508c1.238 30.741 19.622 47.145 32.633 57.893l35.611-113.299 42.22 29.609 46.034-34.919 47.889 35.206 49.734-38.12 50.993 38.382 34.543-31.802z" fill="#d49c8d"/><g><path d="m155.898 132.523c-3.231 0-6.402-1.562-8.329-4.453-3.064-4.595-1.823-10.804 2.772-13.868 1.616-1.077 6.609-4.199 10.255-5.681 5.117-2.08 10.95.384 13.029 5.5s-.383 10.95-5.499 13.029c-1.445.587-4.782 2.52-6.688 3.792-1.706 1.137-3.634 1.681-5.54 1.681z" fill="#fff"/></g><g><path d="m110.919 174.687c-1.831 0-3.683-.502-5.344-1.555-4.665-2.956-6.05-9.135-3.093-13.8 8.651-13.649 18.681-23.342 25.572-29.068 4.247-3.531 10.552-2.949 14.083 1.299 3.53 4.247 2.948 10.553-1.299 14.082-5.785 4.809-14.205 12.943-21.462 24.395-1.906 3.004-5.146 4.647-8.457 4.647z" fill="#fff"/></g><g><g fill="#ffe266"><path d="m288.692 299.291c-2.504 0-5.04-.511-7.384-1.59-20.871-9.602-39.7-9.649-59.256-.147-7.247 3.52-16.573 1.517-20.831-4.478-4.257-5.995-1.833-13.71 5.414-17.232 28.976-14.081 59.077-14.13 89.468-.147 7.346 3.379 9.988 11.045 5.902 17.121-2.781 4.139-7.967 6.472-13.313 6.473z"/><path d="m156.23 254.081c-34.854 0-63.109 28.255-63.109 63.109s28.255 63.109 63.109 63.109 63.109-28.255 63.109-63.109-28.255-63.109-63.109-63.109zm0 103.405c-22.255 0-40.296-18.041-40.296-40.296s18.041-40.296 40.296-40.296 40.296 18.041 40.296 40.296-18.041 40.296-40.296 40.296z"/><path d="m346.82 254.081c-34.854 0-63.109 28.255-63.109 63.109s28.255 63.109 63.109 63.109 63.109-28.255 63.109-63.109-28.255-63.109-63.109-63.109zm0 103.405c-22.255 0-40.296-18.041-40.296-40.296s18.041-40.296 40.296-40.296 40.296 18.041 40.296 40.296-18.041 40.296-40.296 40.296z"/></g><path d="m156.253 254.081c-.008 0-.015-.001-.023-.001-2.138 0-4.25.109-6.334.317 25.583 2.81 45.49 24.484 45.49 50.815 0 .745-.025 1.484-.056 2.221.777 3.124 1.196 6.391 1.196 9.757 0 22.255-18.041 40.296-40.296 40.296-3.366 0-6.632-.419-9.757-1.196-.737.032-1.475.056-2.219.056-26.331 0-48.006-19.906-50.816-45.489-.104 1.041-.183 2.089-.236 3.144-.053 1.056-.081 2.119-.081 3.189 0 34.854 28.255 63.109 63.109 63.109s63.109-28.255 63.109-63.109c0-34.846-28.243-63.096-63.086-63.109z" fill="#efaa66"/><path d="m346.959 254.085c-.046 0-.092-.004-.139-.004-2.138 0-4.25.109-6.333.317 25.583 2.81 45.489 24.484 45.489 50.815 0 .745-.025 1.484-.056 2.221.777 3.125 1.196 6.39 1.196 9.756 0 22.255-18.041 40.296-40.296 40.296-3.366 0-6.632-.419-9.757-1.196-.737.032-1.475.056-2.219.056-26.331 0-48.006-19.906-50.816-45.489-.207 2.083-.317 4.195-.317 6.333 0 .281.017.564.021.846.455 34.463 28.517 62.264 63.088 62.264 34.854 0 63.109-28.255 63.109-63.109 0-34.809-28.18-63.031-62.97-63.106z" fill="#efaa66"/></g></g><g><path d="m58.671 9.908 8.618 24.232c.369 1.037 1.099 1.86 2.021 2.275l21.529 9.7c3.042 1.37 3.042 6.217 0 7.587l-21.529 9.7c-.922.415-1.652 1.237-2.021 2.275l-8.618 24.232c-1.217 3.424-5.523 3.424-6.741 0l-8.618-24.232c-.369-1.037-1.099-1.86-2.021-2.275l-21.529-9.7c-3.042-1.37-3.042-6.217 0-7.587l21.529-9.7c.922-.415 1.652-1.237 2.021-2.275l8.618-24.232c1.218-3.423 5.524-3.423 6.741 0z" fill="#ffc7b6"/><ellipse cx="387.116" cy="26.159" fill="#ffa585" rx="18.818" ry="18.818" transform="matrix(.189 -.982 .982 .189 288.223 401.343)"/><circle cx="7.969" cy="142.66" fill="#ffa585" r="7.969"/><path d="m486.446 67.021 6.393 17.975c.274.77.815 1.379 1.499 1.688l15.97 7.195c2.256 1.017 2.256 4.611 0 5.628l-15.97 7.195c-.684.308-1.226.918-1.499 1.688l-6.393 17.975c-.903 2.539-4.097 2.539-5 0l-6.393-17.975c-.274-.77-.815-1.379-1.499-1.688l-15.97-7.195c-2.256-1.017-2.256-4.611 0-5.628l15.97-7.195c.684-.308 1.226-.918 1.499-1.688l6.393-17.975c.903-2.539 4.097-2.539 5 0z" fill="#ffc7b6"/></g></g></svg>