<svg id="Capa_1" enable-background="new 0 0 512 512" height="512" viewBox="0 0 512 512" width="512" xmlns="http://www.w3.org/2000/svg"><g><g><g><path d="m474.197 254.653h-47.706c-14.462 0-26.185-11.724-26.185-26.185v-167.965c0-14.462 11.724-26.185 26.185-26.185h47.706c14.462 0 26.185 11.723 26.185 26.185v167.965c.001 14.462-11.723 26.185-26.185 26.185z" fill="#ef8bbd"/><path d="m474.197 34.318h-25.404c10.947 0 19.82 8.874 19.82 19.82v145.308c0 10.947-8.874 19.82-19.82 19.82h-28.667c-10.947 0-19.82-8.874-19.82-19.82v29.022c0 14.462 11.723 26.185 26.186 26.185h47.705c14.462 0 26.186-11.723 26.186-26.185v-167.965c0-14.462-11.724-26.185-26.186-26.185z" fill="#e068bd"/><g fill="#ffdcb6"><circle cx="450.345" cy="89.301" r="18.269"/><ellipse cx="450.345" cy="201.939" rx="18.269" ry="18.269" transform="matrix(.23 -.973 .973 .23 150.34 593.841)"/></g></g><g><path d="m73.891 404.216h-47.706c-14.461 0-26.185-11.724-26.185-26.186v-317.527c0-14.462 11.724-26.185 26.185-26.185h47.706c14.462 0 26.186 11.723 26.186 26.185v317.527c0 14.462-11.724 26.186-26.186 26.186z" fill="#a183e2"/><path d="m73.891 34.318h-26.059c11.308 0 20.475 9.167 20.475 20.475v290.401c0 11.308-9.167 20.475-20.475 20.475h-27.356c-11.309.001-20.476-9.166-20.476-20.475v32.836c0 14.462 11.724 26.186 26.185 26.186h47.706c14.462 0 26.185-11.723 26.185-26.186v-317.527c0-14.462-11.723-26.185-26.185-26.185z" fill="#9762e2"/><circle cx="50.038" cy="89.301" fill="#ffdcb6" r="18.269"/><ellipse cx="50.038" cy="351.292" fill="#ffdcb6" rx="18.269" ry="18.269" transform="matrix(.16 -.987 .987 .16 -304.733 344.413)"/><g><path d="m31.769 238.685c-5.522 0-10-4.477-10-10v-38.365c0-5.523 4.478-10 10-10s10 4.477 10 10v38.366c0 5.522-4.478 9.999-10 9.999z" fill="#fff"/></g><g><path d="m31.769 163.267c-5.522 0-10-4.477-10-10v-3.477c0-5.523 4.478-10 10-10s10 4.477 10 10v3.477c0 5.523-4.478 10-10 10z" fill="#fff"/></g></g><g><path d="m173.968 369.561h-47.706c-14.462 0-26.186-11.724-26.186-26.185v-282.873c0-14.462 11.724-26.185 26.186-26.185h47.706c14.462 0 26.185 11.723 26.185 26.185v282.872c0 14.462-11.723 26.186-26.185 26.186z" fill="#8bb6ef"/><path d="m173.968 34.318h-26.124c11.345.001 20.54 9.198 20.54 20.543v261.208c0 11.346-9.197 20.543-20.543 20.543h-27.221c-11.346 0-20.543-9.197-20.543-20.543v27.307c0 14.462 11.724 26.185 26.186 26.185h47.706c14.462 0 26.185-11.724 26.185-26.185v-282.873c-.001-14.462-11.724-26.185-26.186-26.185z" fill="#8388ef"/><g fill="#ffdcb6"><circle cx="150.115" cy="89.301" r="18.269"/><ellipse cx="150.115" cy="317.408" rx="18.269" ry="18.269" transform="matrix(.23 -.973 .973 .23 -193.292 390.582)"/></g></g><g><path d="m274.044 331.159h-47.706c-14.462 0-26.186-11.724-26.186-26.185v-244.471c0-14.462 11.724-26.185 26.186-26.185h47.706c14.462 0 26.185 11.723 26.185 26.185v244.471c.001 14.462-11.723 26.185-26.185 26.185z" fill="#78eac4"/><path d="m274.044 34.318h-25.82c11.177 0 20.237 9.06 20.237 20.237v219.275c0 11.176-9.06 20.237-20.237 20.237h-27.834c-11.176 0-20.237-9.06-20.237-20.237v31.145c0 14.462 11.724 26.185 26.185 26.185h47.706c14.462 0 26.185-11.724 26.185-26.185v-244.472c.001-14.462-11.723-26.185-26.185-26.185z" fill="#71afc4"/><g fill="#ffdcb6"><circle cx="250.191" cy="89.301" r="18.269"/><circle cx="250.191" cy="276.362" r="18.269"/></g></g><g><path d="m374.121 294.631h-47.706c-14.462 0-26.185-11.724-26.185-26.185v-207.943c0-14.462 11.724-26.185 26.185-26.185h47.706c14.462 0 26.185 11.723 26.185 26.185v207.943c0 14.462-11.723 26.185-26.185 26.185z" fill="#ffe266"/><path d="m374.121 34.318h-25.634c11.074 0 20.05 8.977 20.05 20.05v183.5c0 11.073-8.977 20.05-20.05 20.05h-28.207c-11.073 0-20.05-8.977-20.05-20.05v30.578c0 14.462 11.724 26.185 26.185 26.185h47.706c14.462 0 26.185-11.723 26.185-26.185v-207.943c0-14.462-11.723-26.185-26.185-26.185z" fill="#efaa66"/><g fill="#ffdcb6"><circle cx="350.268" cy="89.301" r="18.269"/><ellipse cx="350.268" cy="239.823" rx="18.269" ry="18.269" transform="matrix(.16 -.987 .987 .16 57.435 547.153)"/></g></g><g><path d="m425.263 452.474h-269.24c-9.318 0-16.872-7.554-16.872-16.871 0-9.318 7.554-16.872 16.872-16.872h269.24c9.318 0 16.872 7.554 16.872 16.872 0 9.317-7.554 16.871-16.872 16.871z" fill="#ffdcb6"/><ellipse cx="441.416" cy="435.603" fill="#ffa585" rx="42.08" ry="42.08" transform="matrix(.851 -.526 .526 .851 -163.085 297.123)"/><path d="m441.416 393.523c-2.307 0-4.568.193-6.775.55 13.642 2.651 23.941 14.656 23.941 29.073 0 16.361-13.263 29.623-29.623 29.623-14.417 0-26.422-10.3-29.073-23.941-.357 2.207-.55 4.468-.55 6.775 0 23.24 18.84 42.08 42.08 42.08s42.08-18.84 42.08-42.08c-.001-23.241-18.84-42.08-42.08-42.08z" fill="#ef7c85"/></g></g><g><ellipse cx="399.336" cy="351.292" fill="#a183e2" rx="8.097" ry="8.097" transform="matrix(.924 -.383 .383 .924 -104.036 179.56)"/><path d="m486.035 293.952 6.495 18.264c.278.782.829 1.402 1.523 1.715l16.227 7.311c2.293 1.033 2.293 4.685 0 5.718l-16.227 7.311c-.695.313-1.245.933-1.523 1.715l-6.495 18.264c-.918 2.58-4.163 2.58-5.081 0l-6.495-18.264c-.278-.782-.829-1.402-1.523-1.715l-16.227-7.311c-2.292-1.033-2.292-4.685 0-5.718l16.227-7.311c.695-.313 1.245-.933 1.523-1.715l6.495-18.264c.918-2.58 4.164-2.58 5.081 0z" fill="#cab4ef"/></g></g></svg>