<svg id="Capa_1" enable-background="new 0 0 491.532 491.532" height="512" viewBox="0 0 491.532 491.532" width="512" xmlns="http://www.w3.org/2000/svg"><g><path d="m408.753 250.662h-46.057c-13.266-19.248-44.217-122.307-158.582-132.841-221.359-20.388-203.784 211.622-203.784 211.622 0 43.51 35.271 78.781 78.781 78.781h329.642c43.509 0 78.781-35.271 78.781-78.781 0-43.51-35.271-78.781-78.781-78.781zm-268.607-10.295c0 8.139-6.598 14.737-14.737 14.737h-43.871c-10.646 0-17.783-10.944-13.491-20.687 10.163-23.072 28.356-41.195 50.37-53.293 9.774-5.371 21.729 1.824 21.729 12.977zm137.163 14.737h-79.988c-8.139 0-14.737-6.598-14.737-14.737v-61.234c0-8.604 7.347-15.463 15.916-14.694 3.359.302 6.705.731 10.028 1.292 54.358 9.188 75.074 46.676 82.799 70.084 3.138 9.509-4.006 19.289-14.018 19.289z" fill="#b2e7f1"/><path d="m408.753 250.662h-5.863c2.454 5.943 3.802 12.339 3.802 19.008 0 31.293-29.423 56.662-65.718 56.662h-274.981c-30.971 0-56.923-18.478-63.874-43.341-3.258 27.069-1.789 46.453-1.789 46.453 0 43.51 35.271 78.781 78.781 78.781h329.642c43.509 0 78.781-35.271 78.781-78.781 0-43.511-35.271-78.782-78.781-78.782z" fill="#a7adf1"/><path d="m472.344 282.955h-8.054-22.292c-12.837 0-23.243 10.406-23.243 23.244 0 12.837 10.406 23.244 23.243 23.244h38.011 7.524c.001-17.391-5.646-33.456-15.189-46.488z" fill="#efaa66"/><g><path d="m38.947 272.453c-.657 0-1.322-.065-1.991-.2-5.414-1.094-8.916-6.369-7.822-11.782.714-3.713 1.159-5.781 2.167-9.395 1.392-5.345 6.852-8.549 12.196-7.159 5.345 1.391 8.55 6.852 7.159 12.196-.935 3.371-1.272 4.964-1.918 8.317-.958 4.747-5.13 8.023-9.791 8.023z" fill="#fff"/></g><g><path d="m33.409 312.327c-.213 0-.428-.007-.644-.021-5.512-.35-9.696-5.103-9.346-10.614.267-4.583.462-6.648.846-10.444.531-5.498 5.418-9.522 10.915-8.992 5.498.531 9.524 5.418 8.992 10.915-.357 3.536-.539 5.401-.793 9.79-.336 5.295-4.737 9.366-9.97 9.366z" fill="#fff"/></g><ellipse cx="109.425" cy="408.223" fill="#d49c8d" rx="67.252" ry="67.252" transform="matrix(.707 -.707 .707 .707 -256.608 196.941)"/><circle cx="109.425" cy="408.224" fill="#b07676" r="19.891"/><ellipse cx="375.327" cy="408.223" fill="#d49c8d" rx="67.252" ry="67.252" transform="matrix(.707 -.707 .707 .707 -178.727 384.962)"/><circle cx="375.327" cy="408.224" fill="#b07676" r="19.891"/><g><path d="m275.745 344.505c-3.314 0-6-2.686-6-6v-12.1c0-3.313 2.686-6 6-6s6 2.687 6 6v12.1c0 3.313-2.687 6-6 6z" fill="#95cde6"/></g><g><path d="m311.231 318.249c-3.314 0-6-2.687-6-6v-12.1c0-3.313 2.686-6 6-6s6 2.687 6 6v12.1c0 3.313-2.686 6-6 6z" fill="#95cde6"/></g><path d="m457.578 110.544 8.494 23.883c.364 1.023 1.084 1.833 1.992 2.242l21.219 9.56c2.998 1.351 2.998 6.127 0 7.478l-21.219 9.56c-.909.409-1.629 1.22-1.992 2.242l-8.494 23.883c-1.2 3.374-5.444 3.374-6.644 0l-8.494-23.883c-.364-1.022-1.084-1.833-1.992-2.242l-21.219-9.56c-2.998-1.351-2.998-6.127 0-7.478l21.219-9.56c.909-.409 1.629-1.22 1.992-2.242l8.494-23.883c1.201-3.374 5.444-3.374 6.644 0z" fill="#b2e7f1"/><ellipse cx="418.411" cy="36.109" fill="#8bb6ef" rx="18.547" ry="18.547" transform="matrix(.383 -.924 .924 .383 224.932 408.852)"/><circle cx="229.475" cy="23.911" fill="#8bb6ef" r="7.854"/><path d="m291.204 23.78 6.301 17.716c.27.758.804 1.36 1.478 1.663l15.74 7.092c2.224 1.002 2.224 4.545 0 5.547l-15.74 7.092c-.674.304-1.208.905-1.478 1.663l-6.301 17.716c-.89 2.503-4.038 2.503-4.928 0l-6.301-17.716c-.27-.759-.804-1.36-1.478-1.663l-15.74-7.092c-2.224-1.002-2.224-4.545 0-5.547l15.74-7.092c.674-.304 1.208-.905 1.478-1.663l6.301-17.716c.89-2.503 4.038-2.503 4.928 0z" fill="#b2e7f1"/></g></svg>