<svg id="Capa_1" enable-background="new 0 0 512 512" height="512" viewBox="0 0 512 512" width="512" xmlns="http://www.w3.org/2000/svg"><g><g><path d="m7.667 166.816v296.437c0 9.975 8.086 18.061 18.061 18.061h168.502c9.51 0 18.652 4.392 24.069 12.209 6.667 9.62 20.969 16.271 37.535 16.271s30.868-6.651 37.535-16.271c5.417-7.817 14.558-12.209 24.069-12.209h168.502c9.975 0 18.061-8.086 18.061-18.061v-296.437c0-9.975-8.086-18.061-18.061-18.061h-460.212c-9.975 0-18.061 8.086-18.061 18.061z" fill="#78eac4"/><g fill="#e7effa"><path d="m239.876 453.066c-54.431-29.39-112.961-34.101-174.333-21.7-8.605 1.739-16.651-4.812-16.651-13.591v-284.763c0-6.575 4.613-12.257 11.05-13.594 66.242-13.764 131.606-5.493 195.892 29.842v294.319c0 8.191-8.75 13.379-15.958 9.487z"/><path d="m446.25 431.553c-68.267-13.009-124.741-1.648-174.873 22.817-7.179 3.504-15.544-1.71-15.544-9.699v-295.411c65.506-37.11 131.013-47.199 196.519-30.267 6.133 1.585 10.424 7.116 10.424 13.45v285.492c0 8.726-7.954 15.251-16.526 13.618z"/></g><g><path d="m452.352 118.993c-28.359-7.33-56.718-9.586-85.077-6.788 10.487 1.113 20.974 3.019 31.461 5.73 5.317 1.375 9.038 6.17 9.038 11.663v247.553c0 7.566-6.897 13.224-14.33 11.807-59.195-11.28-108.164-1.429-151.633 19.785-6.225 3.038-21.065 2.244-27.315-1.131-47.198-25.485-97.95-29.569-151.166-18.817-7.461 1.509-14.439-4.172-14.439-11.784v40.763c0 8.779 8.047 15.33 16.651 13.591 61.372-12.401 119.902-7.69 174.333 21.7 7.208 3.892 24.322 4.808 31.501 1.304 50.132-24.465 106.605-35.827 174.872-22.817 8.572 1.633 16.526-4.891 16.526-13.617v-285.492c.002-6.334-4.289-11.865-10.422-13.45z" fill="#dcb6f5"/></g><g><g><path d="m255.834 464.385c-5.522 0-10-4.478-10-10v-305.125c0-5.523 4.478-10 10-10 5.523 0 10 4.477 10 10v305.125c0 5.522-4.478 10-10 10z" fill="#ad99c9"/></g></g><path d="m192.242 260.792c4.928-7.716 7.798-16.867 7.798-26.681 0-27.416-22.304-49.72-49.72-49.72h-40.33c-9.816 0-17.773 7.957-17.773 17.773v63.933.104 74.806c0 4.728 1.883 9.26 5.234 12.595 3.331 3.316 7.84 5.177 12.539 5.177h.079c.371-.002 37.214-.166 47.294-.166 30.407 0 55.145-24.738 55.145-55.145 0-17.184-7.905-32.555-20.266-42.676zm-64.479-40.855h22.558c7.816 0 14.174 6.358 14.174 14.174s-6.358 14.175-14.174 14.175c-2.997 0-8.581.016-14.661.038h-7.896v-28.387zm29.6 103.131c-5.436 0-18.538.047-29.601.091v-39.26c2.645-.01 5.361-.02 7.985-.03h21.615c10.807 0 19.6 8.792 19.6 19.599.001 10.808-8.791 19.6-19.599 19.6z" fill="#ffe266"/><g><path d="m303.152 329.758c-1.661-1.661 3.297-9.872 1.99-11.729-10.97-15.585-9.487-37.262 4.451-51.2l20.241-20.241c15.598-15.598 33.436-8.146 49.035 7.453 15.599 15.598 23.051 33.436 7.453 49.035l-20.241 20.241c-13.823 13.823-35.256 15.396-50.811 4.721-1.999-1.372-10.342 3.496-12.118 1.72z" fill="#ffe266"/><g><path d="m357.617 330.689c-1.536 0-3.071-.586-4.243-1.758l-49.707-49.708c-2.343-2.343-2.343-6.142.001-8.484 2.343-2.344 6.143-2.344 8.485 0l49.707 49.708c2.343 2.343 2.343 6.142-.001 8.485-1.171 1.171-2.707 1.757-4.242 1.757z" fill="#d0844b"/></g><g><g><path d="m395.885 223.347c-.804 0-1.619-.162-2.402-.505-3.035-1.328-4.42-4.866-3.092-7.902l5.51-12.594c1.328-3.035 4.868-4.418 7.902-3.092 3.035 1.328 4.42 4.866 3.092 7.902l-5.51 12.594c-.986 2.254-3.189 3.597-5.5 3.597z" fill="#d0844b"/></g><g><path d="m415.568 243.025c-2.311 0-4.514-1.344-5.5-3.597-1.328-3.036.057-6.574 3.092-7.902l12.594-5.51c3.037-1.33 6.573.056 7.902 3.092 1.328 3.036-.057 6.574-3.092 7.902l-12.594 5.51c-.783.343-1.599.505-2.402.505z" fill="#d0844b"/></g></g><circle cx="386.07" cy="246.84" fill="#ffe266" r="28.942"/><g><g><path d="m322.176 277.974c-16.473-.855-29.221-13.205-28.474-27.585.747-14.379 14.705-25.342 31.178-24.487s52.628 21.719 52.259 28.82c-.368 7.1-38.49 24.107-54.963 23.252z" fill="#b2e7f1"/></g><g><path d="m354.881 310.735c.815 16.474 13.133 29.253 27.514 28.542s25.379-14.643 24.564-31.117-21.589-52.681-28.691-52.33c-7.101.35-24.201 38.43-23.387 54.905z" fill="#b2e7f1"/></g></g></g><g><path d="m420.475 377.067c-3.313 0-6-2.686-6-6v-12.288c0-3.313 2.687-6 6-6 3.314 0 6 2.687 6 6v12.288c0 3.314-2.686 6-6 6z" fill="#ad99c9"/></g><g><path d="m379.144 174.632c-3.314 0-6-2.686-6-6v-12.288c0-3.313 2.686-6 6-6 3.313 0 6 2.687 6 6v12.288c0 3.313-2.686 6-6 6z" fill="#ad99c9"/></g><g><path d="m366.589 400.914c-3.314 0-6-2.687-6-6v-12.288c0-3.314 2.686-6 6-6s6 2.686 6 6v12.288c0 3.313-2.687 6-6 6z" fill="#ad99c9"/></g></g><g><path d="m41.23 4.776 8.626 24.256c.369 1.038 1.101 1.861 2.023 2.277l21.55 9.709c3.045 1.372 3.045 6.223 0 7.594l-21.55 9.709c-.923.416-1.654 1.239-2.023 2.277l-8.626 24.256c-1.219 3.427-5.528 3.427-6.747 0l-8.626-24.255c-.369-1.038-1.1-1.861-2.023-2.277l-21.55-9.709c-3.045-1.372-3.045-6.222 0-7.594l21.55-9.709c.923-.416 1.654-1.239 2.023-2.277l8.626-24.256c1.219-3.428 5.529-3.428 6.747-.001z" fill="#bdf4e3"/><ellipse cx="243.7" cy="61.165" fill="#78eac4" rx="18.836" ry="18.836" transform="matrix(.16 -.987 .987 .16 144.288 291.921)"/><path d="m178.434 32.974c0 4.405-3.571 7.977-7.977 7.977s-7.977-3.571-7.977-7.977c0-4.405 3.571-7.977 7.977-7.977 4.405.001 7.977 3.572 7.977 7.977z" fill="#78eac4"/><path d="m486.421 35.329 6.399 17.992c.274.77.816 1.381 1.501 1.689l15.985 7.202c2.258 1.018 2.258 4.616 0 5.633l-15.985 7.202c-.685.308-1.227.919-1.501 1.689l-6.399 17.992c-.904 2.542-4.101 2.542-5.005 0l-6.399-17.992c-.274-.77-.816-1.381-1.501-1.689l-15.986-7.202c-2.258-1.018-2.258-4.616 0-5.633l15.986-7.202c.685-.308 1.227-.919 1.501-1.689l6.399-17.992c.904-2.542 4.101-2.542 5.005 0z" fill="#bdf4e3"/></g></g></svg>