<svg id="Capa_1" enable-background="new 0 0 512 512" height="512" viewBox="0 0 512 512" width="512" xmlns="http://www.w3.org/2000/svg"><g><g><path d="m469.237 512h-428.869c-19.831 0-35.907-16.076-35.907-35.907v-28.728c0-19.831 16.076-35.907 35.907-35.907h428.869c19.831 0 35.907 16.076 35.907 35.907v28.728c0 19.831-16.076 35.907-35.907 35.907z" fill="#ffdcb6"/><path d="m469.237 411.457h-68.74c14.225 0 25.757 11.532 25.757 25.757v9.896c0 14.225-11.532 25.757-25.757 25.757h-370.279c-14.182 0-25.685-11.463-25.754-25.629 0 .042-.003.085-.003.127v28.728c0 19.831 16.076 35.907 35.908 35.907h428.868c19.831 0 35.907-16.076 35.907-35.907v-28.728c0-19.831-16.076-35.908-35.907-35.908z" fill="#efa5b6"/><path d="m291.887 183.551h-74.169v-145.315c0-20.481 16.603-37.084 37.084-37.084 20.481 0 37.084 16.603 37.084 37.084v145.315z" fill="#ffdcb6"/><path d="m412.94 411.457h-316.275c-30.777 0-55.727-24.95-55.727-55.727 0-30.777 24.95-55.727 55.727-55.727h316.275c30.777 0 55.727 24.95 55.727 55.727.001 30.778-24.949 55.727-55.727 55.727z" fill="#ffa585"/><path d="m412.94 300.003h-43.598c20.261 0 36.686 16.425 36.686 36.686 0 20.261-16.425 36.686-36.686 36.686h-291.718c-17.327 0-31.838-12.015-35.681-28.165-.651 3.408-1.005 6.922-1.005 10.521v.001c0 30.777 24.95 55.727 55.727 55.727h316.275c30.777 0 55.727-24.95 55.727-55.727v-.001c.001-30.778-24.949-55.728-55.727-55.728z" fill="#ef7c85"/><path d="m374.354 300.003h-239.103c-30.777 0-55.727-24.95-55.727-55.727 0-30.777 24.95-55.727 55.727-55.727h239.103c30.777 0 55.727 24.95 55.727 55.727.001 30.777-24.95 55.727-55.727 55.727z" fill="#a183e2"/><path d="m374.354 188.548h-35.679c20.655 0 37.4 16.744 37.4 37.399 0 20.656-16.745 37.4-37.4 37.4h-221.751c-17.817 0-32.715-12.463-36.474-29.145-.597 3.269-.925 6.632-.925 10.073 0 30.778 24.95 55.728 55.727 55.728h239.103c30.777 0 55.727-24.95 55.727-55.728 0-30.777-24.951-55.727-55.728-55.727z" fill="#9762e2"/><path d="m323.414 188.548h-137.222c-30.777 0-55.727-24.95-55.727-55.727 0-30.777 24.95-55.727 55.727-55.727h137.222c30.777 0 55.727 24.95 55.727 55.727 0 30.777-24.95 55.727-55.727 55.727z" fill="#78eac4"/><path d="m323.414 77.093h-34c20.882 0 37.811 16.928 37.811 37.811 0 20.882-16.928 37.811-37.811 37.811h-121.139c-18.1 0-33.221-12.721-36.931-29.709-.567 3.188-.879 6.464-.879 9.815 0 30.777 24.95 55.727 55.727 55.727h137.222c30.777 0 55.727-24.95 55.727-55.727 0-30.778-24.95-55.728-55.727-55.728z" fill="#71afc4"/><g><path d="m216.231 127.239h-27.26c-5.523 0-10-4.477-10-10s4.477-10 10-10h27.26c5.523 0 10 4.477 10 10s-4.478 10-10 10z" fill="#fff"/></g><g><path d="m216.231 237.9h-41.727c-5.523 0-10-4.477-10-10s4.477-10 10-10h41.727c5.523 0 10 4.477 10 10s-4.478 10-10 10z" fill="#fff"/></g><g><path d="m137.913 237.9h-4.333c-5.523 0-10-4.477-10-10s4.477-10 10-10h4.333c5.523 0 10 4.477 10 10s-4.477 10-10 10z" fill="#fff"/></g><g><path d="m319.996 351.784c-3.314 0-6-2.686-6-6v-12.68c0-3.314 2.686-6 6-6 3.313 0 6 2.686 6 6v12.68c0 3.313-2.686 6-6 6z" fill="#be545e"/></g><g><path d="m366.29 374.409c-3.313 0-6-2.686-6-6v-12.679c0-3.313 2.687-6 6-6 3.314 0 6 2.687 6 6v12.679c0 3.314-2.686 6-6 6z" fill="#be545e"/></g><g><path d="m353.016 256.615c-3.314 0-6-2.687-6-6v-12.679c0-3.314 2.686-6 6-6s6 2.686 6 6v12.679c0 3.313-2.686 6-6 6z" fill="#7844c1"/></g></g><g><path d="m81.336 2.652 8.901 25.028c.381 1.072 1.136 1.921 2.088 2.35l22.236 10.018c3.141 1.415 3.141 6.421 0 7.836l-22.237 10.018c-.952.429-1.707 1.278-2.088 2.35l-8.901 25.028c-1.257 3.536-5.704 3.536-6.962 0l-8.901-25.028c-.381-1.072-1.135-1.921-2.088-2.35l-22.235-10.018c-3.141-1.415-3.141-6.421 0-7.836l22.236-10.018c.952-.429 1.706-1.278 2.088-2.35l8.901-25.028c1.257-3.536 5.704-3.536 6.962 0z" fill="#ffc7b6"/><ellipse cx="488.103" cy="177.288" fill="#ffa585" rx="19.435" ry="19.436" transform="matrix(.19 -.982 .982 .19 221.407 622.877)"/><ellipse cx="30.562" cy="155.368" fill="#ffa585" rx="8.231" ry="8.231" transform="matrix(.973 -.229 .229 .973 -34.759 11.124)"/><path d="m445.172 43.293 6.602 18.565c.283.795.842 1.425 1.549 1.743l16.494 7.431c2.33 1.05 2.33 4.763 0 5.813l-16.494 7.431c-.706.318-1.266.948-1.549 1.743l-6.602 18.565c-.933 2.623-4.232 2.623-5.164 0l-6.603-18.565c-.283-.795-.842-1.425-1.549-1.743l-16.494-7.431c-2.33-1.05-2.33-4.763 0-5.813l16.494-7.431c.706-.318 1.266-.948 1.549-1.743l6.603-18.565c.932-2.623 4.231-2.623 5.164 0z" fill="#ffc7b6"/></g></g></svg>